<svg xmlns="http://www.w3.org/2000/svg" version="1.1" xmlns:xlink="http://www.w3.org/1999/xlink" width="200" height="200"><svg xmlns="http://www.w3.org/2000/svg" version="1.1" xmlns:xlink="http://www.w3.org/1999/xlink" viewBox="0 0 200 200"><rect width="200" height="200" fill="url('#gradient')"></rect><defs><linearGradient id="SvgjsLinearGradient1001" gradientTransform="rotate(134 0.5 0.5)"><stop offset="0%" stop-color="#f3ff0b"></stop><stop offset="100%" stop-color="#d9e241"></stop></linearGradient></defs><g><g fill="#0080ff" transform="matrix(3.3947430736443285,0,0,3.3947430736443285,26.363684659796874,124.12402458391905)" stroke="#214cf6" stroke-width="0.85"><path d="M1.07-14.22L5.58-14.22L8.75-4.33L11.91-14.22L16.43-14.22L16.43 0L12.99 0L12.99-3.32L13.32-10.12L9.88 0L7.62 0L4.17-10.13L4.50-3.32L4.50 0L1.07 0L1.07-14.22ZM25.94-3.78L25.94-3.78Q25.94-4.53 25.41-4.95Q24.87-5.37 23.54-5.82Q22.20-6.27 21.35-6.69L21.35-6.69Q18.58-8.05 18.58-10.42L18.58-10.42Q18.58-11.60 19.27-12.50Q19.96-13.41 21.22-13.91Q22.48-14.41 24.05-14.41L24.05-14.41Q25.59-14.41 26.80-13.87Q28.02-13.32 28.69-12.31Q29.37-11.30 29.37-10L29.37-10L25.95-10Q25.95-10.87 25.42-11.35Q24.88-11.83 23.97-11.83L23.97-11.83Q23.06-11.83 22.52-11.42Q21.99-11.02 21.99-10.39L21.99-10.39Q21.99-9.84 22.58-9.40Q23.16-8.96 24.64-8.48Q26.11-8.01 27.06-7.46L27.06-7.46Q29.37-6.13 29.37-3.80L29.37-3.80Q29.37-1.93 27.96-0.87Q26.55 0.20 24.10 0.20L24.10 0.20Q22.37 0.20 20.97-0.42Q19.57-1.04 18.86-2.12Q18.15-3.20 18.15-4.61L18.15-4.61L21.59-4.61Q21.59-3.47 22.18-2.92Q22.77-2.38 24.10-2.38L24.10-2.38Q24.95-2.38 25.44-2.75Q25.94-3.12 25.94-3.78ZM36.74-4.82L34.55-4.82L34.55 0L31.12 0L31.12-14.22L36.80-14.22Q38.43-14.22 39.68-13.62Q40.94-13.02 41.63-11.91Q42.31-10.80 42.31-9.39L42.31-9.39Q42.31-7.31 40.83-6.07Q39.34-4.82 36.74-4.82L36.74-4.82ZM34.55-11.57L34.55-7.47L36.80-7.47Q37.79-7.47 38.32-7.97Q38.84-8.47 38.84-9.38L38.84-9.38Q38.84-10.37 38.30-10.97Q37.76-11.56 36.84-11.57L36.84-11.57L34.55-11.57Z"></path></g></g></svg><style>@media (prefers-color-scheme: light) { :root { filter: none; } }
@media (prefers-color-scheme: dark) { :root { filter: none; } }
</style></svg>